{"buffers":[{"uri":"asm1 v4.bin","byteLength":1827828}],"asset":{"version":"2.0","generator":"gltfpack 0.16"},"bufferViews":[{"buffer":0,"byteOffset":0,"byteLength":701928,"byteStride":12,"target":34962},{"buffer":0,"byteOffset":701928,"byteLength":701928,"byteStride":12,"target":34962},{"buffer":0,"byteOffset":1403856,"byteLength":423972,"target":34963}],"accessors":[{"bufferView":0,"byteOffset":0,"componentType":5126,"count":2930,"type":"VEC3","min":[-19.5960197,8.53398037,1.44178998],"max":[116.403969,21.6364002,145.955856]},{"bufferView":1,"byteOffset":0,"componentType":5126,"count":2930,"type":"VEC3"},{"bufferView":2,"byteOffset":0,"componentType":5123,"count":8244,"type":"SCALAR"},{"bufferView":0,"byteOffset":35160,"componentType":5126,"count":540,"type":"VEC3","min":[0.403979987,-21.0607605,1.80737996],"max":[3.40398002,12.7392502,117.38504]},{"bufferView":1,"byteOffset":35160,"componentType":5126,"count":540,"type":"VEC3"},{"bufferView":2,"byteOffset":16488,"componentType":5123,"count":1608,"type":"SCALAR"},{"bufferView":0,"byteOffset":41640,"componentType":5126,"count":540,"type":"VEC3","min":[83.4039764,-21.0607605,1.80737996],"max":[86.4039764,12.7392502,117.38504]},{"bufferView":1,"byteOffset":41640,"componentType":5126,"count":540,"type":"VEC3"},{"bufferView":2,"byteOffset":19704,"componentType":5123,"count":1608,"type":"SCALAR"},{"bufferView":0,"byteOffset":48120,"componentType":5126,"count":336,"type":"VEC3","min":[2,-63.9798889,0],"max":[86.0864334,20.2312202,5]},{"bufferView":1,"byteOffset":48120,"componentType":5126,"count":336,"type":"VEC3"},{"bufferView":2,"byteOffset":22920,"componentType":5123,"count":768,"type":"SCALAR"},{"bufferView":0,"byteOffset":52152,"componentType":5126,"count":2560,"type":"VEC3","min":[9.07231903,-60.0623817,-6.10622664e-15],"max":[42.572319,7.33759832,24.3999901]},{"bufferView":1,"byteOffset":52152,"componentType":5126,"count":2560,"type":"VEC3"},{"bufferView":2,"byteOffset":24456,"componentType":5123,"count":5100,"type":"SCALAR"},{"bufferView":0,"byteOffset":82872,"componentType":5126,"count":32,"type":"VEC3","min":[21.1876984,-57.8623924,15.7766199],"max":[30.3731995,5.33760834,21.03549]},{"bufferView":1,"byteOffset":82872,"componentType":5126,"count":32,"type":"VEC3"},{"bufferView":2,"byteOffset":34656,"componentType":5123,"count":72,"type":"SCALAR"},{"bufferView":0,"byteOffset":83256,"componentType":5126,"count":2920,"type":"VEC3","min":[46.5841789,-60.0803566,-3.41948641e-15],"max":[80.0841751,7.31962299,27.3999901]},{"bufferView":1,"byteOffset":83256,"componentType":5126,"count":2920,"type":"VEC3"},{"bufferView":2,"byteOffset":34800,"componentType":5123,"count":5820,"type":"SCALAR"},{"bufferView":0,"byteOffset":118296,"componentType":5126,"count":32,"type":"VEC3","min":[58.6995583,-57.8803673,15.7766199],"max":[67.8850555,5.31963301,21.03549]},{"bufferView":1,"byteOffset":118296,"componentType":5126,"count":32,"type":"VEC3"},{"bufferView":2,"byteOffset":46440,"componentType":5123,"count":72,"type":"SCALAR"},{"bufferView":0,"byteOffset":118680,"componentType":5126,"count":36,"type":"VEC3","min":[51.9108009,-21,-90.5116119],"max":[59.2170105,-19,-83.5]},{"bufferView":1,"byteOffset":118680,"componentType":5126,"count":36,"type":"VEC3"},{"bufferView":2,"byteOffset":46584,"componentType":5123,"count":60,"type":"SCALAR"},{"bufferView":0,"byteOffset":119112,"componentType":5126,"count":36,"type":"VEC3","min":[43,-35.2170105,-90.5116119],"max":[45,-27.9108009,-83.5]},{"bufferView":1,"byteOffset":119112,"componentType":5126,"count":36,"type":"VEC3"},{"bufferView":2,"byteOffset":46704,"componentType":5123,"count":60,"type":"SCALAR"},{"bufferView":0,"byteOffset":119544,"componentType":5126,"count":36,"type":"VEC3","min":[28.7829895,-21,-90.5116119],"max":[36.0891991,-19,-83.5]},{"bufferView":1,"byteOffset":119544,"componentType":5126,"count":36,"type":"VEC3"},{"bufferView":2,"byteOffset":46824,"componentType":5123,"count":60,"type":"SCALAR"},{"bufferView":0,"byteOffset":119976,"componentType":5126,"count":36,"type":"VEC3","min":[43,-12.0892,-90.5116119],"max":[45,-4.78298998,-83.5]},{"bufferView":1,"byteOffset":119976,"componentType":5126,"count":36,"type":"VEC3"},{"bufferView":2,"byteOffset":46944,"componentType":5123,"count":60,"type":"SCALAR"},{"bufferView":0,"byteOffset":120408,"componentType":5126,"count":3500,"type":"VEC3","min":[30,-33.5,-52.5],"max":[58,-7.44403982,-3.5]},{"bufferView":1,"byteOffset":120408,"componentType":5126,"count":3500,"type":"VEC3"},{"bufferView":2,"byteOffset":47064,"componentType":5123,"count":11742,"type":"SCALAR"},{"bufferView":0,"byteOffset":162408,"componentType":5126,"count":356,"type":"VEC3","min":[22.9342709,-36.1590004,-3.5],"max":[65.0109329,-3.77343011,4]},{"bufferView":1,"byteOffset":162408,"componentType":5126,"count":356,"type":"VEC3"},{"bufferView":2,"byteOffset":70548,"componentType":5123,"count":840,"type":"SCALAR"},{"bufferView":0,"byteOffset":166680,"componentType":5126,"count":512,"type":"VEC3","min":[31.5,-32.5,-83.5],"max":[56.5,-7.5,-52]},{"bufferView":1,"byteOffset":166680,"componentType":5126,"count":512,"type":"VEC3"},{"bufferView":2,"byteOffset":72228,"componentType":5123,"count":1968,"type":"SCALAR"},{"bufferView":0,"byteOffset":172824,"componentType":5126,"count":346,"type":"VEC3","min":[52.3326111,-24.9901295,-141.884384],"max":[110.707291,-15.0098696,-83.509697]},{"bufferView":1,"byteOffset":172824,"componentType":5126,"count":346,"type":"VEC3"},{"bufferView":2,"byteOffset":76164,"componentType":5123,"count":1824,"type":"SCALAR"},{"bufferView":0,"byteOffset":176976,"componentType":5126,"count":10677,"type":"VEC3","min":[105.306862,-27.4958096,-158.25],"max":[125.483253,-12.5041904,-134.25]},{"bufferView":1,"byteOffset":176976,"componentType":5126,"count":10677,"type":"VEC3"},{"bufferView":2,"byteOffset":79812,"componentType":5123,"count":41652,"type":"SCALAR"},{"bufferView":0,"byteOffset":305100,"componentType":5126,"count":346,"type":"VEC3","min":[39.0098686,-86.7072906,-141.884384],"max":[48.9901314,-28.3326092,-83.509697]},{"bufferView":1,"byteOffset":305100,"componentType":5126,"count":346,"type":"VEC3"},{"bufferView":2,"byteOffset":163116,"componentType":5123,"count":1824,"type":"SCALAR"},{"bufferView":0,"byteOffset":309252,"componentType":5126,"count":10677,"type":"VEC3","min":[36.5041885,-101.483253,-158.25],"max":[51.4958115,-81.3068619,-134.25]},{"bufferView":1,"byteOffset":309252,"componentType":5126,"count":10677,"type":"VEC3"},{"bufferView":2,"byteOffset":166764,"componentType":5123,"count":41652,"type":"SCALAR"},{"bufferView":0,"byteOffset":437376,"componentType":5126,"count":346,"type":"VEC3","min":[-22.7072906,-24.9901295,-141.884384],"max":[35.6673889,-15.0098696,-83.509697]},{"bufferView":1,"byteOffset":437376,"componentType":5126,"count":346,"type":"VEC3"},{"bufferView":2,"byteOffset":250068,"componentType":5123,"count":1824,"type":"SCALAR"},{"bufferView":0,"byteOffset":441528,"componentType":5126,"count":10677,"type":"VEC3","min":[-37.4832497,-27.4958096,-158.25],"max":[-17.30686,-12.5041904,-134.25]},{"bufferView":1,"byteOffset":441528,"componentType":5126,"count":10677,"type":"VEC3"},{"bufferView":2,"byteOffset":253716,"componentType":5123,"count":41652,"type":"SCALAR"},{"bufferView":0,"byteOffset":569652,"componentType":5126,"count":346,"type":"VEC3","min":[39.0098686,-11.6673899,-141.884384],"max":[48.9901314,46.7072906,-83.509697]},{"bufferView":1,"byteOffset":569652,"componentType":5126,"count":346,"type":"VEC3"},{"bufferView":2,"byteOffset":337020,"componentType":5123,"count":1824,"type":"SCALAR"},{"bufferView":0,"byteOffset":573804,"componentType":5126,"count":10677,"type":"VEC3","min":[36.5041885,41.3068619,-158.25],"max":[51.4958115,61.4832497,-134.25]},{"bufferView":1,"byteOffset":573804,"componentType":5126,"count":10677,"type":"VEC3"},{"bufferView":2,"byteOffset":340668,"componentType":5123,"count":41652,"type":"SCALAR"}],"materials":[{"pbrMetallicRoughness":{"baseColorFactor":[0.0980392173,0.0980392173,0.0980392173,0],"metallicFactor":0},"alphaMode":"BLEND","doubleSided":true},{"pbrMetallicRoughness":{"baseColorFactor":[0.627451003,0.627451003,0.627451003,1],"metallicFactor":0},"doubleSided":true},{"pbrMetallicRoughness":{"baseColorFactor":[0.305882365,0.450980395,0.34117648,1],"metallicFactor":0},"doubleSided":true},{"pbrMetallicRoughness":{"baseColorFactor":[0.0980392173,0.0980392173,0.0980392173,1],"metallicFactor":0},"doubleSided":true}],"meshes":[{"primitives":[{"attributes":{"POSITION":0,"NORMAL":1},"mode":4,"indices":2,"material":0}]},{"primitives":[{"attributes":{"POSITION":3,"NORMAL":4},"mode":4,"indices":5,"material":1}]},{"primitives":[{"attributes":{"POSITION":6,"NORMAL":7},"mode":4,"indices":8,"material":1}]},{"primitives":[{"attributes":{"POSITION":9,"NORMAL":10},"mode":4,"indices":11,"material":1}]},{"primitives":[{"attributes":{"POSITION":12,"NORMAL":13},"mode":4,"indices":14,"material":2},{"attributes":{"POSITION":15,"NORMAL":16},"mode":4,"indices":17,"material":3}]},{"primitives":[{"attributes":{"POSITION":18,"NORMAL":19},"mode":4,"indices":20,"material":2},{"attributes":{"POSITION":21,"NORMAL":22},"mode":4,"indices":23,"material":3}]},{"primitives":[{"attributes":{"POSITION":24,"NORMAL":25},"mode":4,"indices":26,"material":0}]},{"primitives":[{"attributes":{"POSITION":27,"NORMAL":28},"mode":4,"indices":29,"material":0}]},{"primitives":[{"attributes":{"POSITION":30,"NORMAL":31},"mode":4,"indices":32,"material":0}]},{"primitives":[{"attributes":{"POSITION":33,"NORMAL":34},"mode":4,"indices":35,"material":0}]},{"primitives":[{"attributes":{"POSITION":36,"NORMAL":37},"mode":4,"indices":38,"material":0}]},{"primitives":[{"attributes":{"POSITION":39,"NORMAL":40},"mode":4,"indices":41,"material":0}]},{"primitives":[{"attributes":{"POSITION":42,"NORMAL":43},"mode":4,"indices":44,"material":0}]},{"primitives":[{"attributes":{"POSITION":45,"NORMAL":46},"mode":4,"indices":47,"material":1}]},{"primitives":[{"attributes":{"POSITION":48,"NORMAL":49},"mode":4,"indices":50,"material":1}]},{"primitives":[{"attributes":{"POSITION":51,"NORMAL":52},"mode":4,"indices":53,"material":1}]},{"primitives":[{"attributes":{"POSITION":54,"NORMAL":55},"mode":4,"indices":56,"material":1}]},{"primitives":[{"attributes":{"POSITION":57,"NORMAL":58},"mode":4,"indices":59,"material":1}]},{"primitives":[{"attributes":{"POSITION":60,"NORMAL":61},"mode":4,"indices":62,"material":1}]},{"primitives":[{"attributes":{"POSITION":63,"NORMAL":64},"mode":4,"indices":65,"material":1}]},{"primitives":[{"attributes":{"POSITION":66,"NORMAL":67},"mode":4,"indices":68,"material":1}]}],"nodes":[{"mesh":0},{"mesh":1},{"mesh":2},{"mesh":3},{"mesh":4},{"mesh":5},{"mesh":6},{"mesh":7},{"mesh":8},{"mesh":9},{"mesh":10},{"mesh":11},{"mesh":12},{"mesh":13},{"mesh":14},{"mesh":15},{"mesh":16},{"mesh":17},{"mesh":18},{"mesh":19},{"mesh":20},{"name":"frame v2","children":[0]},{"name":"frame v2","children":[1]},{"name":"frame v2","children":[2]},{"name":"baseplate v5","children":[3]},{"name":"antenna unit v4","children":[4]},{"name":"control unit v5","children":[5]},{"name":"quDRIPOD v5","children":[6]},{"name":"quDRIPOD v5","children":[7]},{"name":"quDRIPOD v5","children":[8]},{"name":"quDRIPOD v5","children":[9]},{"name":"quDRIPOD v5","children":[10]},{"name":"quDRIPOD v5","children":[11]},{"name":"quDRIPOD v5","children":[12]},{"name":"LEG v6","children":[13]},{"name":"FEET v2","children":[14]},{"name":"LEG v6","children":[15]},{"name":"FEET v2","children":[16]},{"name":"LEG v6","children":[17]},{"name":"FEET v2","children":[18]},{"name":"LEG v6","children":[19]},{"name":"FEET v2","children":[20]}],"scenes":[{"nodes":[21,22,23,24,25,26,27,28,29,30,31,32,33,34,35,36,37,38,39,40,41]}]}